#tb 0: 1/24
#media_type 0: video
#codec_id 0: rawvideo
#dimensions 0: 320x240
#sar 0: 1/1
0,          0,          0,        1,   115200, 0xeba70ff3
0,          1,          1,        1,   115200, 0xbf963f2c
0,          2,          2,        1,   115200, 0x822c77cd
0,          3,          3,        1,   115200, 0x62c0a4b1
0,          4,          4,        1,   115200, 0x7a3fd919
0,          5,          5,        1,   115200, 0x800efa06
0,          6,          6,        1,   115200, 0x3326fbbe
0,          7,          7,        1,   115200, 0xb803f3ba
0,          8,          8,        1,   115200, 0xaf07f156
0,          9,          9,        1,   115200, 0x57a3ebe3
0,         10,         10,        1,   115200, 0x6c27ebb2
0,         11,         11,        1,   115200, 0xea56ee4e
0,         12,         12,        1,   115200, 0xfc76f369
0,         13,         13,        1,   115200, 0xf3f7f7f4
0,         14,         14,        1,   115200, 0xa40c083b
0,         15,         15,        1,   115200, 0xb1eb1129
0,         16,         16,        1,   115200, 0x093a0ab7
0,         17,         17,        1,   115200, 0x8b140cad
0,         18,         18,        1,   115200, 0xa6681236
0,         19,         19,        1,   115200, 0x1270137e
0,         20,         20,        1,   115200, 0x2f550e34
0,         21,         21,        1,   115200, 0xd5ebf9a1
0,         22,         22,        1,   115200, 0x35aee377
0,         23,         23,        1,   115200, 0xff4cdc71
0,         24,         24,        1,   115200, 0x5d70c0bc
0,         25,         25,        1,   115200, 0xb8c0caea
0,         26,         26,        1,   115200, 0x56f8da6b
0,         27,         27,        1,   115200, 0xca81d558
0,         28,         28,        1,   115200, 0xdc89ea02
0,         29,         29,        1,   115200, 0xcf06fc36
0,         30,         30,        1,   115200, 0x14b905d5
0,         31,         31,        1,   115200, 0xbed50cbf
0,         32,         32,        1,   115200, 0xa894103c
0,         33,         33,        1,   115200, 0x4b611da9
0,         34,         34,        1,   115200, 0xedfc22e3
0,         35,         35,        1,   115200, 0xa0b63573
0,         36,         36,        1,   115200, 0x6f9148db
0,         37,         37,        1,   115200, 0x69e03976
0,         38,         38,        1,   115200, 0xe9bf3865
0,         39,         39,        1,   115200, 0xd9e9255f
0,         40,         40,        1,   115200, 0x99b91d6d
0,         41,         41,        1,   115200, 0x1f8011f4
0,         42,         42,        1,   115200, 0x74f0f3d0
0,         43,         43,        1,   115200, 0x1ca7d668
0,         44,         44,        1,   115200, 0x84d2c990
0,         45,         45,        1,   115200, 0x1fcfb766
0,         46,         46,        1,   115200, 0x4e89ab81
0,         47,         47,        1,   115200, 0xf6d5bfed
0,         48,         48,        1,   115200, 0x7124cb5f
0,         49,         49,        1,   115200, 0xdc2bb44c
0,         50,         50,        1,   115200, 0xd11ac3c8
0,         51,         51,        1,   115200, 0x019ec083
0,         52,         52,        1,   115200, 0xa935dd47
0,         53,         53,        1,   115200, 0x8bff0250
0,         54,         54,        1,   115200, 0xcd400ba8
0,         55,         55,        1,   115200, 0xa6ea14c0
0,         56,         56,        1,   115200, 0xaad01a88
0,         57,         57,        1,   115200, 0xf7dd1c70
0,         58,         58,        1,   115200, 0x26ae259f
0,         59,         59,        1,   115200, 0x51bb2e04
0,         60,         60,        1,   115200, 0x15bd3f32
0,         61,         61,        1,   115200, 0x6937269b
0,         62,         62,        1,   115200, 0x4d5729de
0,         63,         63,        1,   115200, 0x343f384b
0,         64,         64,        1,   115200, 0xe9353d2a
0,         65,         65,        1,   115200, 0x65753d3c
0,         66,         66,        1,   115200, 0xbda64078
0,         67,         67,        1,   115200, 0x32c84b69
0,         68,         68,        1,   115200, 0xd95f4557
0,         69,         69,        1,   115200, 0x20a41a53
0,         70,         70,        1,   115200, 0x7445fc11
0,         71,         71,        1,   115200, 0x2b76e8a5
0,         72,         72,        1,   115200, 0xc445cf15
0,         73,         73,        1,   115200, 0x0a4fe0ab
0,         74,         74,        1,   115200, 0x85610638
0,         75,         75,        1,   115200, 0x937a29b5
0,         76,         76,        1,   115200, 0x3aa67daa
0,         77,         77,        1,   115200, 0x70b2cbef
0,         78,         78,        1,   115200, 0x7cb8d043
0,         79,         79,        1,   115200, 0x529fc410
0,         80,         80,        1,   115200, 0x3bc8c140
0,         81,         81,        1,   115200, 0xb689a829
0,         82,         82,        1,   115200, 0xb16276ee
0,         83,         83,        1,   115200, 0xf95c5305
0,         84,         84,        1,   115200, 0x7a9a0f51
0,         85,         85,        1,   115200, 0x823a280e
0,         86,         86,        1,   115200, 0x5c483fd4
0,         87,         87,        1,   115200, 0x05cd5897
0,         88,         88,        1,   115200, 0x7b075138
0,         89,         89,        1,   115200, 0x7de4634b
0,         90,         90,        1,   115200, 0x5ea6699e
0,         91,         91,        1,   115200, 0xafc3542f
0,         92,         92,        1,   115200, 0x249b0f88
0,         93,         93,        1,   115200, 0x1c4bb61b
0,         94,         94,        1,   115200, 0x4a4c7fff
0,         95,         95,        1,   115200, 0x7b3962f3
0,         96,         96,        1,   115200, 0x304d5af6
0,         97,         97,        1,   115200, 0x7da664c0
0,         98,         98,        1,   115200, 0xe85b85e6
0,         99,         99,        1,   115200, 0x8c7594d5
0,        100,        100,        1,   115200, 0xe279bef2
0,        101,        101,        1,   115200, 0x66f9d4be
0,        102,        102,        1,   115200, 0xa7cdc971
0,        103,        103,        1,   115200, 0xad30baf5
0,        104,        104,        1,   115200, 0x9244b378
0,        105,        105,        1,   115200, 0x6485a7cc
0,        106,        106,        1,   115200, 0xf30e9291
0,        107,        107,        1,   115200, 0x9f288e01
0,        108,        108,        1,   115200, 0xade58fe5
0,        109,        109,        1,   115200, 0x0c029251
0,        110,        110,        1,   115200, 0x660b9c9f
0,        111,        111,        1,   115200, 0xa7c99ff7
0,        112,        112,        1,   115200, 0xd63a9d6d
0,        113,        113,        1,   115200, 0x8b27a5cf
0,        114,        114,        1,   115200, 0xf97ba4a2
0,        115,        115,        1,   115200, 0xa4b9aa9c
0,        116,        116,        1,   115200, 0xe197ad07
0,        117,        117,        1,   115200, 0x9dd8a125
0,        118,        118,        1,   115200, 0xccbca2f6
0,        119,        119,        1,   115200, 0xb4daa104
0,        120,        120,        1,   115200, 0x100c9d8a
0,        121,        121,        1,   115200, 0xcd239c90
0,        122,        122,        1,   115200, 0xb0d1b2ab
0,        123,        123,        1,   115200, 0x04a1c66e
0,        124,        124,        1,   115200, 0x01ede1ed
0,        125,        125,        1,   115200, 0x13d5fc05
0,        126,        126,        1,   115200, 0xf62401b2
0,        127,        127,        1,   115200, 0x05a00e4e
0,        128,        128,        1,   115200, 0xfe802328
0,        129,        129,        1,   115200, 0x527025b0
0,        130,        130,        1,   115200, 0x1f6331a4
0,        131,        131,        1,   115200, 0x77ad3986
0,        132,        132,        1,   115200, 0xf8484f06
0,        133,        133,        1,   115200, 0xc9ec372e
0,        134,        134,        1,   115200, 0x9ef33524
0,        135,        135,        1,   115200, 0x58ed1f81
0,        136,        136,        1,   115200, 0x4d140fb8
0,        137,        137,        1,   115200, 0x0260fb37
0,        138,        138,        1,   115200, 0xc30ddff1
0,        139,        139,        1,   115200, 0x5fbec612
0,        140,        140,        1,   115200, 0x1bdcb832
0,        141,        141,        1,   115200, 0xaa23a217
0,        142,        142,        1,   115200, 0x3d9d9d4e
0,        143,        143,        1,   115200, 0xcf7ca95f
0,        144,        144,        1,   115200, 0x29aeb511
0,        145,        145,        1,   115200, 0xd727c28d
0,        146,        146,        1,   115200, 0xbbc0d640
0,        147,        147,        1,   115200, 0x5254d5b9
0,        148,        148,        1,   115200, 0x4e68f139
0,        149,        149,        1,   115200, 0xc8221a08
0,        150,        150,        1,   115200, 0xd0973761
0,        151,        151,        1,   115200, 0xc0a44143
0,        152,        152,        1,   115200, 0x4fc63fc3
0,        153,        153,        1,   115200, 0x5def2bd6
0,        154,        154,        1,   115200, 0x2d151cfd
0,        155,        155,        1,   115200, 0xdca12233
0,        156,        156,        1,   115200, 0xe3f93a01
0,        157,        157,        1,   115200, 0xeb562c80
0,        158,        158,        1,   115200, 0x353428c0
0,        159,        159,        1,   115200, 0xa27a1bb0
0,        160,        160,        1,   115200, 0x00b31d64
0,        161,        161,        1,   115200, 0xc9d41237
0,        162,        162,        1,   115200, 0xe3ae0ea6
0,        163,        163,        1,   115200, 0x532315f1
0,        164,        164,        1,   115200, 0x1c060fa5
0,        165,        165,        1,   115200, 0x82cefc68
0,        166,        166,        1,   115200, 0xe59cdfb0
0,        167,        167,        1,   115200, 0xc752d2fd
0,        168,        168,        1,   115200, 0x11a9c73f
0,        169,        169,        1,   115200, 0x5bfce0a0
0,        170,        170,        1,   115200, 0xdfcd0d08
0,        171,        171,        1,   115200, 0x72223121
0,        172,        172,        1,   115200, 0x10f18168
0,        173,        173,        1,   115200, 0x3246d9d1
0,        174,        174,        1,   115200, 0x0ebce030
0,        175,        175,        1,   115200, 0xe557d979
0,        176,        176,        1,   115200, 0xbca5c41a
0,        177,        177,        1,   115200, 0x3770a682
0,        178,        178,        1,   115200, 0xd6966c19
0,        179,        179,        1,   115200, 0x01f13a7d
0,        180,        180,        1,   115200, 0x4c030202
0,        181,        181,        1,   115200, 0x17f70f1a
0,        182,        182,        1,   115200, 0x953933a6
0,        183,        183,        1,   115200, 0x334d5fc2
0,        184,        184,        1,   115200, 0x91146079
0,        185,        185,        1,   115200, 0xf2108405
0,        186,        186,        1,   115200, 0xa7789bab
0,        187,        187,        1,   115200, 0x26559004
0,        188,        188,        1,   115200, 0xc5144c57
0,        189,        189,        1,   115200, 0xa743f4ab
0,        190,        190,        1,   115200, 0x42f7c523
0,        191,        191,        1,   115200, 0xa1ada8b2
0,        192,        192,        1,   115200, 0x6428a8b1
0,        193,        193,        1,   115200, 0xbf72b6ef
0,        194,        194,        1,   115200, 0x0ef0ca5d
0,        195,        195,        1,   115200, 0xc7e6d823
0,        196,        196,        1,   115200, 0x36dfe907
0,        197,        197,        1,   115200, 0x5b15f784
0,        198,        198,        1,   115200, 0x88bbe6be
0,        199,        199,        1,   115200, 0x99b0d1c3
0,        200,        200,        1,   115200, 0x1da5cbca
0,        201,        201,        1,   115200, 0xe6efbaf8
0,        202,        202,        1,   115200, 0x5a03b454
0,        203,        203,        1,   115200, 0xf929b3ae
0,        204,        204,        1,   115200, 0xcffab7cf
0,        205,        205,        1,   115200, 0x6befc008
0,        206,        206,        1,   115200, 0x434dcef4
0,        207,        207,        1,   115200, 0x0cc5d530
0,        208,        208,        1,   115200, 0x08c2d9c5
0,        209,        209,        1,   115200, 0xf994d94a
0,        210,        210,        1,   115200, 0x1973d911
0,        211,        211,        1,   115200, 0x540cd279
0,        212,        212,        1,   115200, 0x842ed2d6
0,        213,        213,        1,   115200, 0x8fa4c5bb
0,        214,        214,        1,   115200, 0x77b9b5d1
0,        215,        215,        1,   115200, 0x8ae3b17d
0,        216,        216,        1,   115200, 0x52a4a175
0,        217,        217,        1,   115200, 0x2f69ad02
0,        218,        218,        1,   115200, 0xd56cc263
0,        219,        219,        1,   115200, 0x8aa4bde3
0,        220,        220,        1,   115200, 0x1f97d1e1
0,        221,        221,        1,   115200, 0x24d2df00
0,        222,        222,        1,   115200, 0x8a5feb1a
0,        223,        223,        1,   115200, 0xed8bf2a9
0,        224,        224,        1,   115200, 0xfc91ff14
0,        225,        225,        1,   115200, 0xf25b0408
0,        226,        226,        1,   115200, 0xfbd719be
0,        227,        227,        1,   115200, 0x1719309c
0,        228,        228,        1,   115200, 0x0c645265
0,        229,        229,        1,   115200, 0x52da4723
0,        230,        230,        1,   115200, 0x61494396
0,        231,        231,        1,   115200, 0xba312ea6
0,        232,        232,        1,   115200, 0x65a32114
0,        233,        233,        1,   115200, 0xd19b1e21
0,        234,        234,        1,   115200, 0x0e80fe23
0,        235,        235,        1,   115200, 0x5e4fe60c
0,        236,        236,        1,   115200, 0x4ca9d81b
0,        237,        237,        1,   115200, 0xc343b958
0,        238,        238,        1,   115200, 0xb5b2a7d1
0,        239,        239,        1,   115200, 0xe9879d29
